<svg width="300" height="299" viewBox="0 0 300 299" fill="none" xmlns="http://www.w3.org/2000/svg">
<path d="M263.817 28.1418C255.234 28.1418 248.275 35.1002 248.275 43.6843C248.275 52.2676 255.234 59.2263 263.817 59.2263C272.401 59.2263 279.359 52.2676 279.359 43.6843C279.359 35.1002 272.401 28.1418 263.817 28.1418Z" fill="white" fill-opacity="0.7"/>
<path d="M8.84328 0.933085L0.325562 9.51196L290.982 298.097L299.5 289.518L8.84328 0.933085Z" fill="white" fill-opacity="0.7"/>
<path d="M90.2723 68.2537V38.45C90.2723 32.7184 85.6259 28.0715 79.8936 28.0715H64.5493C60.5649 28.0715 57.1464 30.3424 55.4072 33.6368L90.2723 68.2537Z" fill="white" fill-opacity="0.7"/>
<path d="M54.1716 76.5022V95.0669V242.019V265.239V266.019C54.1716 271.751 58.8177 276.398 64.5493 276.398H79.8943C85.6259 276.398 90.2723 271.751 90.2723 266.019V265.239V242.019V130.911V112.345L54.1716 76.5022Z" fill="white" fill-opacity="0.7"/>
<path d="M139.597 117.226V38.45C139.597 32.7184 134.95 28.0715 129.219 28.0715H113.875C108.142 28.0715 103.496 32.7184 103.496 38.45V81.3827L139.597 117.226Z" fill="white" fill-opacity="0.7"/>
<path d="M103.496 125.475V144.039V242.019V265.238V266.019C103.496 271.751 108.142 276.398 113.875 276.398H129.219C134.95 276.398 139.597 271.751 139.597 266.019V242.019V161.319L103.496 125.475Z" fill="white" fill-opacity="0.7"/>
<path d="M188.922 166.2V38.45C188.922 32.7184 184.276 28.0715 178.543 28.0715H163.199C157.468 28.0715 152.82 32.7184 152.82 38.45V130.356L188.922 166.2Z" fill="white" fill-opacity="0.7"/>
<path d="M152.821 174.449V193.013L152.82 265.239C152.82 265.241 152.821 265.243 152.821 265.246V266.019C152.821 271.751 157.468 276.398 163.199 276.398H178.543C184.276 276.398 188.922 271.751 188.922 266.019V265.239V242.019V228.856V210.292L152.821 174.449Z" fill="white" fill-opacity="0.7"/>
<path d="M238.246 215.173V199.018V38.45C238.246 32.7184 233.6 28.0715 227.868 28.0715H212.523C206.792 28.0715 202.146 32.7184 202.146 38.45V163.176V179.329L238.246 215.173Z" fill="white" fill-opacity="0.7"/>
<path d="M202.146 223.422V241.986V242.02V259.645V265.239V266.02C202.146 271.751 206.792 276.398 212.524 276.398H227.868C233.6 276.398 238.246 271.751 238.246 266.02V259.645V259.265L202.146 223.422Z" fill="white" fill-opacity="0.7"/>
</svg>
