<svg width="50" height="51" viewBox="0 0 50 51" fill="none" xmlns="http://www.w3.org/2000/svg">
<path d="M44.0529 5.38843C42.6223 5.38843 41.4625 6.54816 41.4625 7.97883C41.4625 9.40938 42.6223 10.5692 44.0529 10.5692C45.4836 10.5692 46.6432 9.40938 46.6432 7.97883C46.6432 6.54816 45.4836 5.38843 44.0529 5.38843Z" fill="#B1B3B3"/>
<path d="M1.55722 0.853634L0.137604 2.28345L48.5804 50.3809L50 48.9511L1.55722 0.853634Z" fill="#B1B3B3"/>
<path d="M15.1287 12.0737V7.10645C15.1287 6.15118 14.3543 5.37671 13.3989 5.37671H10.8416C10.1775 5.37671 9.60773 5.75519 9.31787 6.30426L15.1287 12.0737Z" fill="#B1B3B3"/>
<path d="M9.11194 13.4485V16.5426V41.0347V44.9045V45.0347C9.11194 45.9899 9.88629 46.7645 10.8416 46.7645H13.399C14.3543 46.7645 15.1287 45.9899 15.1287 45.0347V44.9045V41.0347V22.5165V19.4224L9.11194 13.4485Z" fill="#B1B3B3"/>
<path d="M23.3495 20.2358V7.10645C23.3495 6.15118 22.5751 5.37671 21.6198 5.37671H19.0624C18.1071 5.37671 17.3326 6.15118 17.3326 7.10645V14.2619L23.3495 20.2358Z" fill="#B1B3B3"/>
<path d="M17.3326 21.6106V24.7047V41.0347V44.9045V45.0347C17.3326 45.9899 18.1071 46.7645 19.0624 46.7645H21.6198C22.5751 46.7645 23.3495 45.9899 23.3495 45.0347V41.0347V27.5846L17.3326 21.6106Z" fill="#B1B3B3"/>
<path d="M31.5703 28.3981V7.10645C31.5703 6.15118 30.796 5.37671 29.8406 5.37671H27.2832C26.3279 5.37671 25.5534 6.15118 25.5534 7.10645V22.4241L31.5703 28.3981Z" fill="#B1B3B3"/>
<path d="M25.5535 29.7729V32.867L25.5534 44.9046C25.5534 44.905 25.5535 44.9054 25.5535 44.9058V45.0347C25.5535 45.99 26.3279 46.7645 27.2832 46.7645H29.8406C30.796 46.7645 31.5703 45.99 31.5703 45.0347V44.9046V41.0347V38.8409V35.7468L25.5535 29.7729Z" fill="#B1B3B3"/>
<path d="M39.7911 36.5602V33.8679V7.10645C39.7911 6.15118 39.0167 5.37671 38.0614 5.37671H35.5039C34.5486 5.37671 33.7743 6.15118 33.7743 7.10645V27.894V30.5864L39.7911 36.5602Z" fill="#B1B3B3"/>
<path d="M33.7743 37.9351V41.0291V41.0347V43.9722V44.9045V45.0347C33.7743 45.9899 34.5486 46.7645 35.504 46.7645H38.0614C39.0167 46.7645 39.7911 45.9899 39.7911 45.0347V43.9722V43.9089L33.7743 37.9351Z" fill="#B1B3B3"/>
</svg>
