<svg width="301" height="301" viewBox="0 0 301 301" fill="none" xmlns="http://www.w3.org/2000/svg">
<path d="M231.5 138.813C269.3 138.813 300.5 108.213 300.5 69.8135C300.5 32.0135 269.3 0.813477 231.5 0.813477C193.7 0.813477 162.5 32.0135 162.5 69.8135H177.5C177.5 39.8135 201.5 15.8135 231.5 15.8135C261.5 15.8135 285.5 39.8135 285.5 69.8135C285.5 99.8135 261.5 123.813 231.5 123.813H0.5V138.813H231.5Z" fill="white" fill-opacity="0.7"/>
<path d="M231.5 162.813H0.5V177.813H231.5C261.5 177.813 285.5 201.813 285.5 231.813C285.5 261.813 261.5 285.813 231.5 285.813C201.5 285.813 177.5 261.813 177.5 231.813H162.5C162.5 269.613 193.1 300.813 231.5 300.813C269.9 300.813 300.5 269.613 300.5 231.813C300.5 194.013 269.3 162.813 231.5 162.813Z" fill="white" fill-opacity="0.7"/>
<path d="M105.5 206.014H0.5V221.014H105.5C123.5 221.014 137.9 235.414 137.9 253.414C137.9 271.414 123.5 285.814 105.5 285.814C87.5 285.814 73.1 271.414 73.1 253.414H58.1C58.1 279.214 79.1 300.814 105.5 300.814C131.9 300.814 152.9 279.814 152.9 253.414C152.9 227.014 131.9 206.014 105.5 206.014Z" fill="white" fill-opacity="0.7"/>
<path d="M105.5 95.6135C131.3 95.6135 152.9 74.6135 152.9 48.2135C152.9 21.8135 131.9 0.813477 105.5 0.813477C79.1 0.813477 58.1 21.8135 58.1 48.2135H73.1C73.1 30.2135 87.5 15.8135 105.5 15.8135C123.5 15.8135 137.9 30.2135 137.9 48.2135C137.9 66.2135 123.5 80.6135 105.5 80.6135H0.5V95.6135H105.5Z" fill="white" fill-opacity="0.7"/>
</svg>
