<svg width="84" height="56" viewBox="0 0 84 56" fill="none" xmlns="http://www.w3.org/2000/svg">
<path d="M31.1487 28.6836C40.3934 28.6836 40.4555 36.9976 40.4555 36.9976V54.9906H34.1269V48.6621H28.1706V54.9906H21.842V36.9976C21.842 36.9976 21.9041 28.6836 31.1487 28.6836ZM34.1269 37.3699C34.1269 35.7567 32.7619 34.3918 31.1487 34.3918C29.5356 34.3918 28.1706 35.7567 28.1706 37.3699V42.1474H34.1269V37.3699ZM55.7185 46.2423C55.7185 47.8555 54.4155 49.2205 52.8024 49.2205C51.1892 49.2205 49.8242 47.8555 49.8242 46.2423V29.3041H43.5577V47.173C43.5577 47.173 43.6197 55.425 52.8024 55.425C61.985 55.425 62.0471 47.173 62.0471 47.173V29.3041H55.7805V46.2423H55.7185ZM64.2186 48.8482V54.9906H76.0692C76.0692 54.9906 83.5146 55.2388 83.5146 47.235C83.5146 39.1692 76.3794 39.1072 76.3794 39.1072H72.8428C71.7881 39.1072 70.9195 38.3006 70.9195 37.3079C70.9195 36.2531 71.7261 35.4465 72.7808 35.4465H82.8321V29.4282H72.4085C72.4085 29.4282 64.3427 29.1179 64.3427 36.9356C64.3427 43.8226 70.0508 45.1876 72.7188 45.1876H75.2626C76.3174 45.1876 77.186 46.0562 77.186 47.0489C77.186 48.1037 76.3174 48.9723 75.3246 48.9723L64.2186 48.8482ZM31.2108 0.391179H24.1377V18.0119C24.1377 19.3769 23.0209 20.4317 21.7179 20.4317C20.3529 20.4317 19.2982 19.3149 19.2982 18.0119V0.391179H12.2251V18.0119C12.2251 19.3769 11.1082 20.4317 9.8053 20.4317C8.44032 20.4317 7.38556 19.3149 7.38556 18.0119V0.391179H0.312442V18.5703C0.312442 23.0996 3.35264 26.8223 9.61917 26.8223C12.0389 26.8223 14.5207 26.0777 15.8237 24.2784C17.1886 26.0777 19.6704 26.8223 22.0281 26.8223C28.2947 26.8223 31.3349 23.0996 31.3349 18.5703V0.391179H31.2108ZM40.4555 0.329135H34.0028V26.0157H40.4555V0.329135ZM12.3491 29.3041V38.921H6.64102V29.3041H0.188354V54.9286H6.57897V45.3737H12.2871V54.9286H18.7398V29.3041H12.3491ZM49.8242 26.0157V11.3731L55.7185 26.0157H61.985V0.391179H55.7185V14.9717L49.8242 0.391179H43.4957V26.0157H49.8242ZM71.4779 11.0629L71.5399 0.329135H65.1493V26.0157H71.4779L71.5399 18.2601L72.9669 14.8476L76.8137 26.0157H83.4525L78.1167 11.0008L83.4525 0.26709H76.2553L71.4779 11.0629Z" fill="#163872"/>
</svg>
