<svg width="50" height="51" viewBox="0 0 50 51" fill="none" xmlns="http://www.w3.org/2000/svg">
<g clip-path="url(#clip0_19_127)">
<path d="M21.2597 15.1L21.5612 15.2334H24.3831C24.9473 18.3042 27.6319 20.6421 30.8633 20.6421C31.2704 20.6421 31.6696 20.5915 32.061 20.5129L35.0067 25.3795L43.1338 29.1944C44.2006 29.6952 44.6596 30.9654 44.1588 32.0322C44.0271 32.3128 43.8297 32.5343 43.6091 32.7244C43.573 32.7551 43.5407 32.7857 43.5028 32.8137C43.2667 32.9917 43.0048 33.1223 42.7195 33.1905C42.558 33.2291 42.3939 33.2601 42.226 33.2601C41.9226 33.2601 41.6142 33.1948 41.3211 33.0573L32.0245 28.6937L29.2226 24.0644L29.1397 25.9834L13.4434 10.3991L14.7163 6.56763L19.7604 6.58951L18.2128 11.4797L21.2597 15.1ZM26.0377 14.0413C26.0377 11.3762 28.1982 9.21573 30.8633 9.21573C33.5284 9.21573 35.6889 11.3762 35.6889 14.0413C35.6889 16.6014 33.4234 18.8669 30.8633 18.8669C28.1982 18.8669 26.0377 16.7064 26.0377 14.0413ZM36.1534 50.7526C35.9129 50.8495 35.6506 50.8539 35.4034 50.8539C34.1518 50.8539 33.006 50.0226 32.66 48.7572L28.451 39.4846L23.0132 37.5467L20.8184 38.7792L11.6227 38.7725L18.8489 33.0371L18.923 23.1747L28.8361 33.0171L28.7745 34.4447L31.4488 35.6111L34.2944 38.4365L38.089 48.0618C38.0519 49.678 37.1438 50.3525 36.1534 50.7526Z" fill="#B1B3B3"/>
<path d="M26.8715 40.293H6.66791V10.8947L4.16791 8.52466L4.16791 42.793H28.0033L26.8715 40.293Z" fill="#B1B3B3"/>
<path d="M41.9945 26.6683L44.2525 27.7282C44.3395 27.769 44.4121 27.8266 44.4945 27.873V2.51221H5.50018L8.00989 5.01221H41.9945V26.6683Z" fill="#B1B3B3"/>
<path d="M43.5182 34.8104C43.2321 34.8788 42.9412 34.9337 42.6437 34.9337C42.4279 34.9337 42.2108 34.9009 41.9945 34.8628V38.7448L44.4945 41.2283V34.396C44.1871 34.5754 43.8665 34.7271 43.5182 34.8104Z" fill="#B1B3B3"/>
<path d="M1.50874 0.800848L0.0997314 2.21997L48.1803 49.9578L49.5893 48.5387L1.50874 0.800848Z" fill="#B1B3B3"/>
</g>
<defs>
<clipPath id="clip0_19_127">
<rect width="50" height="50" fill="white" transform="translate(0 0.85376)"/>
</clipPath>
</defs>
</svg>
