<svg width="301" height="301" viewBox="0 0 301 301" fill="none" xmlns="http://www.w3.org/2000/svg">
<g clip-path="url(#clip0_19_263)">
<path d="M291.964 300.093L0.5 8.7529L9.04234 0.0932617L300.5 291.428L291.964 300.093Z" fill="white" fill-opacity="0.7"/>
<path d="M67.083 43.6874C89.9873 25.7954 118.767 15.0933 150.017 15.0933C224.456 15.0933 285.017 75.6539 285.017 150.093C285.017 181.323 274.328 210.085 256.458 232.982L267.183 243.702C287.712 218.04 300.017 185.512 300.017 150.093C300.017 67.2505 232.859 0.0932617 150.017 0.0932617C114.575 0.0932617 82.0273 12.4137 56.3578 32.9669L67.083 43.6874Z" fill="white" fill-opacity="0.7"/>
<path d="M233.495 256.071C210.503 274.221 181.514 285.094 150.017 285.094C75.5773 285.094 15.0166 224.533 15.0166 150.094C15.0166 118.616 25.8755 89.6445 44.0037 66.66L33.2792 55.9399C12.489 81.6846 0.0166016 114.426 0.0166016 150.094C0.0166016 232.936 67.1738 300.094 150.017 300.094C185.707 300.094 218.468 287.606 244.22 266.792L233.495 256.071Z" fill="white" fill-opacity="0.7"/>
<path d="M89.3538 112.283L83.2791 106.252L71.3285 94.3878L65.0886 88.1919C64.9722 88.505 64.8001 88.787 64.6986 89.1074C63.9303 91.5427 63.6762 94.0549 63.905 96.5232C61.6949 96.0629 59.4069 95.9552 57.1202 96.3082C52.1478 97.0937 47.7723 99.766 44.8093 103.836L29.9785 124.205C28.6136 131.62 27.8014 139.228 27.8014 147.031C27.8014 150.154 28.0457 153.216 28.2701 156.282C28.6195 156.577 28.9176 156.918 29.2908 157.19C32.5493 159.566 36.3949 160.811 40.347 160.811C41.3365 160.811 42.3308 160.729 43.3203 160.576C48.2975 159.791 52.6682 157.108 55.6312 153.039L75.296 126.04C78.0532 122.244 79.2137 117.667 78.7428 113.041C80.0612 113.327 81.3788 113.658 82.7059 113.658C84.9786 113.658 87.2023 113.108 89.3538 112.283ZM43.3547 144.411C39.8289 144.411 36.9702 141.554 36.9702 138.027C36.9702 134.501 39.8289 131.644 43.3547 131.644C46.8806 131.644 49.7389 134.501 49.7389 138.027C49.7389 141.554 46.8806 144.411 43.3547 144.411Z" fill="white" fill-opacity="0.7"/>
<path d="M103.245 80.6823C103.981 77.9697 106.353 75.934 109.299 75.934C112.825 75.934 115.683 78.7919 115.683 82.3178C115.683 85.2628 113.648 87.634 110.937 88.3712L120.152 97.5825C123.388 95.2274 125.821 91.9652 127.047 88.0779C127.625 86.2432 127.828 84.3663 127.84 82.4961C129.804 83.174 131.818 83.6412 133.886 83.6412C135.569 83.6412 137.267 83.4168 138.93 82.9575L171.13 74.0839C175.985 72.7479 180.034 69.5963 182.523 65.2205C183.126 64.1566 183.611 63.0492 183.994 61.9172C187.395 65.1465 191.983 67.1178 196.976 67.1178C197.297 67.1178 197.623 67.1178 197.95 67.0973L231.313 65.3633C234.684 65.1857 237.833 64.0698 240.584 62.2736C238.011 59.4036 229.601 51.4715 221.55 46.0604C214.224 41.1365 204.176 36.3275 204.176 36.3275C199.686 34.1984 195.08 32.2926 190.318 30.6992C187.546 31.7462 185.01 33.366 182.966 35.6317C181.197 37.5968 179.915 39.8695 179.105 42.3052C177.997 41.2523 176.803 40.2819 175.439 39.5073C171.054 37.0186 165.964 36.3865 161.119 37.7224L128.914 46.5961C124.059 47.9324 120.015 51.084 117.526 55.4595C115.918 58.2939 115.172 61.4225 115.145 64.5887C115.004 64.5404 114.879 64.4602 114.736 64.4148C109.943 62.895 104.832 63.344 100.36 65.6694L92.3801 69.8219L103.245 80.6823ZM200.034 41.0106C203.56 41.0106 206.419 43.8685 206.419 47.3944C206.419 50.9207 203.56 53.7786 200.034 53.7786C196.509 53.7786 193.65 50.9207 193.65 47.3944C193.65 43.8685 196.509 41.0106 200.034 41.0106ZM164.132 49.8231C167.658 49.8231 170.516 52.6807 170.516 56.2065C170.516 59.7332 167.658 62.5911 164.132 62.5911C160.606 62.5911 157.747 59.7332 157.747 56.2065C157.747 52.6807 160.606 49.8231 164.132 49.8231Z" fill="white" fill-opacity="0.7"/>
<path d="M168.652 146.062C169.496 145.212 170.341 144.361 170.992 143.278L188.194 114.638C190.79 110.324 191.55 105.254 190.331 100.358C189.112 95.4726 186.062 91.352 181.743 88.7614C177.428 86.1708 172.354 85.4058 167.468 86.6194C162.578 87.8433 158.457 90.8931 155.866 95.2074L141.571 118.993L168.652 146.062ZM171.312 99.7605C174.838 99.7605 177.697 102.618 177.697 106.144C177.697 109.671 174.838 112.528 171.312 112.528C167.786 112.528 164.928 109.671 164.928 106.144C164.928 102.618 167.786 99.7605 171.312 99.7605Z" fill="white" fill-opacity="0.7"/>
<path d="M153.952 175.713L127.279 149.052L106.174 170.328C100.136 176.421 99.1993 185.598 103.18 192.748C101.723 193.04 100.284 193.448 98.9016 194.093C94.3372 196.214 90.8691 199.988 89.1458 204.721L77.6965 236.105C75.9677 240.837 76.187 245.958 78.3136 250.527C79.1775 252.383 80.3746 253.995 81.7355 255.443C84.4352 257.21 87.177 258.918 90.0144 260.478C91.7964 261.012 93.6011 261.44 95.4233 261.44C98.1366 261.44 100.84 260.839 103.369 259.666C107.938 257.534 111.401 253.76 113.125 249.028L124.574 217.654C126.519 212.314 125.823 206.694 123.263 202.077C126.828 201.369 130.228 199.634 132.968 196.867L153.952 175.713ZM106.252 219.366C102.726 219.366 99.868 216.507 99.868 212.982C99.868 209.456 102.726 206.597 106.252 206.597C109.778 206.597 112.636 209.456 112.636 212.982C112.636 216.507 109.778 219.366 106.252 219.366ZM121.702 187.597C118.176 187.597 115.317 184.74 115.317 181.213C115.317 177.687 118.176 174.829 121.702 174.829C125.227 174.829 128.086 177.687 128.086 181.213C128.086 184.74 125.227 187.597 121.702 187.597Z" fill="white" fill-opacity="0.7"/>
<path d="M225.485 247.216L197.9 220.491L196.756 243.642C196.343 248.66 197.914 253.536 201.173 257.381C202.945 259.463 205.12 261.059 207.522 262.192C211.045 260.392 218.185 256.151 227.56 249.291L225.485 247.216Z" fill="white" fill-opacity="0.7"/>
<path d="M236.987 214.368L237.065 213.411C237.478 208.393 235.913 203.517 232.649 199.672C232.504 199.501 232.323 199.375 232.173 199.211C235.16 197.578 237.755 195.157 239.544 191.981L255.924 162.862C260.203 155.255 258.555 145.952 252.565 140.132C258.361 138.242 263.15 133.612 264.915 127.316L269.761 109.997C268.462 106.139 266.988 102.368 265.335 98.6864C265.335 98.6864 263.116 93.1037 260.333 88.1478C257.524 83.1475 254.15 78.7735 254.171 78.7704C252.655 76.5717 251.027 74.4579 249.377 72.3628C243.846 74.3693 239.3 78.8861 237.596 84.967L228.594 117.137C227.233 121.992 227.85 127.092 230.323 131.477C231.235 133.098 232.418 134.483 233.716 135.739C229.354 137.146 225.468 140.077 223.046 144.37L206.671 173.479C205.176 176.137 204.483 178.978 204.41 181.804L236.987 214.368ZM247.904 112.598C251.43 112.598 254.289 115.456 254.289 118.982C254.289 122.508 251.43 125.366 247.904 125.366C244.379 125.366 241.52 122.508 241.52 118.982C241.52 115.456 244.379 112.598 247.904 112.598ZM238.331 148.936C241.856 148.936 244.714 151.794 244.714 155.32C244.714 158.846 241.856 161.704 238.331 161.704C234.804 161.704 231.946 158.846 231.946 155.32C231.946 151.794 234.804 148.936 238.331 148.936Z" fill="white" fill-opacity="0.7"/>
</g>
<defs>
<clipPath id="clip0_19_263">
<rect width="300" height="300" fill="white" transform="translate(0.5 0.0932617)"/>
</clipPath>
</defs>
</svg>
