<svg width="50" height="51" viewBox="0 0 50 51" fill="none" xmlns="http://www.w3.org/2000/svg">
<g clip-path="url(#clip0_19_175)">
<path d="M48.5773 50.8538L0 2.29703L1.42372 0.85376L50 49.4095L48.5773 50.8538Z" fill="#B1B3B3"/>
<path d="M11.0972 8.11945C14.9146 5.13745 19.7111 3.35376 24.9194 3.35376C37.3259 3.35376 47.4194 13.4472 47.4194 25.8538C47.4194 31.0587 45.6381 35.8524 42.6596 39.6685L44.4471 41.4553C47.8687 37.1783 49.9194 31.757 49.9194 25.8538C49.9194 12.0466 38.7265 0.85376 24.9194 0.85376C19.0125 0.85376 13.5879 2.90717 9.30963 6.3327L11.0972 8.11945Z" fill="#B1B3B3"/>
<path d="M38.8325 43.5168C35.0005 46.5417 30.1691 48.3539 24.9194 48.3539C12.5129 48.3539 2.41943 38.2604 2.41943 25.8539C2.41943 20.6076 4.22925 15.7791 7.25061 11.9483L5.4632 10.1616C1.99817 14.4524 -0.0805664 19.9092 -0.0805664 25.8539C-0.0805664 39.661 11.1123 50.8539 24.9194 50.8539C30.8679 50.8539 36.3279 48.7726 40.62 45.3036L38.8325 43.5168Z" fill="#B1B3B3"/>
<path d="M14.809 19.5521L13.7965 18.5469L11.8047 16.5695L10.7648 15.5369C10.7454 15.5891 10.7167 15.636 10.6998 15.6895C10.5717 16.0953 10.5294 16.514 10.5675 16.9254C10.1992 16.8487 9.81781 16.8307 9.43671 16.8896C8.60797 17.0205 7.87872 17.4659 7.38489 18.1442L4.91309 21.5391C4.68561 22.7749 4.55023 24.0428 4.55023 25.3434C4.55023 25.8639 4.59094 26.3742 4.62836 26.8852C4.68658 26.9344 4.73627 26.9911 4.79846 27.0365C5.34155 27.4326 5.98248 27.64 6.64117 27.64C6.80609 27.64 6.9718 27.6264 7.13672 27.6009C7.96625 27.47 8.6947 27.0229 9.18854 26.3447L12.466 21.8449C12.9255 21.2122 13.119 20.4495 13.0405 19.6783C13.2602 19.7261 13.4798 19.7812 13.701 19.7812C14.0798 19.7812 14.4504 19.6895 14.809 19.5521ZM7.14246 24.9068C6.55481 24.9068 6.07837 24.4305 6.07837 23.8428C6.07837 23.2551 6.55481 22.7788 7.14246 22.7788C7.7301 22.7788 8.20648 23.2551 8.20648 23.8428C8.20648 24.4305 7.7301 24.9068 7.14246 24.9068Z" fill="#B1B3B3"/>
<path d="M17.1241 14.2853C17.2469 13.8333 17.6422 13.494 18.1331 13.494C18.7208 13.494 19.1971 13.9703 19.1971 14.5579C19.1971 15.0488 18.858 15.444 18.4062 15.5668L19.9421 17.1021C20.4813 16.7095 20.8869 16.1658 21.0912 15.5179C21.1876 15.2122 21.2214 14.8994 21.2233 14.5876C21.5506 14.7006 21.8864 14.7785 22.231 14.7785C22.5115 14.7785 22.7946 14.7411 23.0717 14.6646L28.4384 13.1856C29.2475 12.963 29.9224 12.4377 30.3372 11.7084C30.4377 11.5311 30.5184 11.3465 30.5824 11.1578C31.1492 11.696 31.9138 12.0246 32.746 12.0246C32.7995 12.0246 32.8539 12.0246 32.9083 12.0212L38.4688 11.7322C39.0306 11.7026 39.5555 11.5166 40.014 11.2172C39.5852 10.7389 38.1835 9.41689 36.8417 8.51504C35.6207 7.69438 33.9459 6.89288 33.9459 6.89288C33.1976 6.53802 32.43 6.2204 31.6364 5.95483C31.1744 6.12933 30.7516 6.39929 30.4111 6.77692C30.1161 7.10443 29.9025 7.48322 29.7675 7.88916C29.5829 7.71368 29.3838 7.55194 29.1566 7.42285C28.4256 7.00806 27.5773 6.90271 26.7698 7.12537L21.4023 8.60431C20.5931 8.82703 19.9191 9.35229 19.5043 10.0815C19.2363 10.554 19.1121 11.0754 19.1075 11.6031C19.0839 11.595 19.0632 11.5817 19.0394 11.5741C18.2404 11.3208 17.3887 11.3956 16.6433 11.7832L15.3134 12.4753L17.1241 14.2853ZM33.2557 7.6734C33.8434 7.6734 34.3198 8.14972 34.3198 8.73737C34.3198 9.32507 33.8434 9.80139 33.2557 9.80139C32.6681 9.80139 32.1917 9.32507 32.1917 8.73737C32.1917 8.14972 32.6681 7.6734 33.2557 7.6734ZM27.272 9.14215C27.8596 9.14215 28.336 9.61841 28.336 10.2061C28.336 10.7938 27.8596 11.2701 27.272 11.2701C26.6843 11.2701 26.2079 10.7938 26.2079 10.2061C26.2079 9.61841 26.6843 9.14215 27.272 9.14215Z" fill="#B1B3B3"/>
<path d="M28.0254 25.1819C28.166 25.0401 28.3068 24.8983 28.4154 24.7178L31.2823 19.9444C31.715 19.2254 31.8416 18.3805 31.6384 17.5645C31.4353 16.7502 30.927 16.0635 30.2071 15.6317C29.488 15.1999 28.6423 15.0724 27.8281 15.2747C27.0129 15.4787 26.3262 15.987 25.8943 16.706L23.5119 20.6703L28.0254 25.1819ZM28.4687 17.4649C29.0563 17.4649 29.5328 17.9411 29.5328 18.5288C29.5328 19.1166 29.0563 19.5929 28.4687 19.5929C27.881 19.5929 27.4047 19.1166 27.4047 18.5288C27.4047 17.9411 27.881 17.4649 28.4687 17.4649Z" fill="#B1B3B3"/>
<path d="M25.5753 30.1238L21.1298 25.6802L17.6123 29.2261C16.606 30.2416 16.4499 31.7712 17.1133 32.9628C16.8705 33.0116 16.6307 33.0796 16.4003 33.187C15.6395 33.5406 15.0615 34.1696 14.7743 34.9583L12.8661 40.189C12.5779 40.9778 12.6145 41.8312 12.9689 42.5927C13.1129 42.902 13.3124 43.1708 13.5392 43.4121C13.9892 43.7066 14.4462 43.9912 14.9191 44.2512C15.2161 44.3403 15.5168 44.4116 15.8206 44.4116C16.2728 44.4116 16.7233 44.3113 17.1448 44.1158C17.9064 43.7606 18.4835 43.1316 18.7708 42.3428L20.679 37.1138C21.0031 36.2239 20.8872 35.2872 20.4605 34.5176C21.0547 34.3997 21.6213 34.1106 22.078 33.6494L25.5753 30.1238ZM17.6254 37.3992C17.0377 37.3992 16.5613 36.9228 16.5613 36.3351C16.5613 35.7475 17.0377 35.2711 17.6254 35.2711C18.213 35.2711 18.6894 35.7475 18.6894 36.3351C18.6894 36.9228 18.213 37.3992 17.6254 37.3992ZM20.2003 32.1044C19.6126 32.1044 19.1362 31.6282 19.1362 31.0404C19.1362 30.4528 19.6126 29.9764 20.2003 29.9764C20.7879 29.9764 21.2643 30.4528 21.2643 31.0404C21.2643 31.6282 20.7879 32.1044 20.2003 32.1044Z" fill="#B1B3B3"/>
<path d="M37.4975 42.041L32.9 37.5867L32.7094 41.4453C32.6406 42.2816 32.9023 43.0942 33.4455 43.735C33.7409 44.0821 34.1033 44.3481 34.5037 44.5368C35.0909 44.2369 36.2808 43.53 37.8434 42.3867L37.4975 42.041Z" fill="#B1B3B3"/>
<path d="M39.4145 36.5662L39.4276 36.4067C39.4964 35.5703 39.2355 34.7578 38.6915 34.1168C38.6674 34.0884 38.6372 34.0674 38.6122 34.04C39.11 33.7678 39.5425 33.3644 39.8406 32.8351L42.5707 27.9818C43.2838 26.714 43.0092 25.1635 42.0108 24.1935C42.9769 23.8786 43.775 23.1068 44.0692 22.0576L44.8769 19.171C44.6603 18.528 44.4147 17.8995 44.1391 17.2859C44.1391 17.2859 43.7694 16.3555 43.3055 15.5295C42.8374 14.6961 42.275 13.9671 42.2786 13.9666C42.0258 13.6002 41.7545 13.2479 41.4796 12.8987C40.5577 13.2331 39.8 13.9859 39.5159 14.9994L38.0157 20.361C37.7888 21.1702 37.8917 22.0201 38.3039 22.7511C38.4558 23.0212 38.653 23.2521 38.8693 23.4614C38.1423 23.6959 37.4947 24.1843 37.091 24.8998L34.3618 29.7514C34.1126 30.1943 33.9971 30.6679 33.9849 31.1389L39.4145 36.5662ZM41.2341 19.6045C41.8217 19.6045 42.2981 20.0809 42.2981 20.6686C42.2981 21.2562 41.8217 21.7326 41.2341 21.7326C40.6464 21.7326 40.17 21.2562 40.17 20.6686C40.17 20.0809 40.6464 19.6045 41.2341 19.6045ZM39.6384 25.6608C40.2261 25.6608 40.7024 26.1373 40.7024 26.7249C40.7024 27.3126 40.2261 27.7889 39.6384 27.7889C39.0507 27.7889 38.5744 27.3126 38.5744 26.7249C38.5744 26.1373 39.0507 25.6608 39.6384 25.6608Z" fill="#B1B3B3"/>
</g>
<defs>
<clipPath id="clip0_19_175">
<rect width="50" height="50" fill="white" transform="translate(0 0.85376)"/>
</clipPath>
</defs>
</svg>
