<svg width="67" height="45" viewBox="0 0 67 45" fill="none" xmlns="http://www.w3.org/2000/svg">
<path d="M66.2223 0.150848H0.5V44.8492H66.2223V0.150848Z" fill="#163872"/>
<path d="M32.5422 2.08649H27.718V21.2642H32.5422V2.08649Z" fill="white"/>
<path d="M11.5183 23.7061V30.9126H7.25986V23.7061H2.40588V42.8837H7.25986V35.7368H11.5183V42.8837H16.3722V23.7061H11.5183Z" fill="white"/>
<path d="M34.8352 21.2642V2.08649H39.5701L43.9774 12.9558V2.08649H48.6824V21.2642H43.9774L39.5701 10.3055L39.5403 21.2642H34.8352Z" fill="white"/>
<path d="M59.3136 2.02693H64.6738L60.6834 10.0375L64.6738 21.2642H59.7305L56.8122 12.9261L55.7699 15.487L55.7103 21.2642H50.9755V2.02693H55.7699L55.7103 10.0673L59.3136 2.02693Z" fill="white"/>
<path d="M25.6037 23.2296C32.5422 23.2296 32.5423 29.4236 32.5423 29.4236V42.854H27.8074V38.1489H23.3703V42.8837H18.6354V29.4534C18.6354 29.4236 18.6652 23.2296 25.6037 23.2296ZM27.8372 29.7214C27.8372 28.5303 26.7949 27.488 25.6037 27.488C24.4126 27.488 23.4001 28.5303 23.4001 29.7214V33.2949H27.8372V29.7214ZM43.9774 36.3919C43.9774 37.5831 42.9947 38.6253 41.7737 38.6253C40.5826 38.6253 39.5403 37.6129 39.5403 36.3919V23.7061H34.8352V37.0768C34.8352 37.0768 34.865 43.2709 41.744 43.2709C48.6229 43.2709 48.6527 37.0768 48.6527 37.0768V23.7061H43.9476V36.3919H43.9774ZM50.3203 38.2978V42.8837H59.1647C59.1647 42.8837 64.7036 43.0922 64.7036 37.0768C64.7036 31.0317 59.3731 30.9721 59.3731 30.9721H56.7228C55.9486 30.9721 55.2636 30.3766 55.2636 29.6023C55.2636 28.828 55.889 28.2027 56.6633 28.2027H64.1676V23.7061H56.3655C56.3655 23.7061 50.3203 23.4678 50.3203 29.3045C50.3203 34.4563 54.5787 35.4688 56.5739 35.4688H58.4798C59.254 35.4688 59.9389 36.0941 59.9389 36.8684C59.9389 37.6426 59.3136 38.2978 58.5393 38.2978H50.3203ZM25.6335 2.08649H20.3329V15.2488C20.3329 16.2613 19.499 17.0653 18.5163 17.0653C17.5038 17.0653 16.6998 16.2613 16.6998 15.2488V2.08649H11.3694V15.2488C11.3694 16.2613 10.5356 17.0653 9.55285 17.0653C8.54036 17.0653 7.73633 16.2613 7.73633 15.2488V2.08649H2.40588V15.6657C2.40588 19.0605 4.66909 21.8598 9.3444 21.8598C11.1311 21.8598 13.0072 21.294 13.9899 19.9241C15.0024 21.294 16.8487 21.8598 18.6354 21.8598C23.3108 21.8598 25.574 19.0605 25.574 15.6657V2.08649H25.6335ZM32.572 2.08649H27.7478V21.2642H32.572V2.08649ZM11.5183 23.7061V30.8828H7.25986V23.7061H2.40588V42.854H7.23008V35.707H11.4885V42.854H16.3722V23.7061H11.5183ZM39.5403 21.2642V10.3055L43.9476 21.2642H48.6527V2.08649H43.9476V12.9856L39.5403 2.08649H34.8352V21.2642H39.5403ZM55.7103 10.0673L55.7401 2.02693H50.9457V21.2344H55.7103L55.7401 15.4573L56.8121 12.9261L59.7007 21.2642H64.644L60.6536 10.0673L64.644 2.05671H59.2838L55.7103 10.0673Z" fill="white"/>
</svg>
